<svg width="298" height="333" viewBox="0 0 298 333" fill="none" xmlns="http://www.w3.org/2000/svg">
<path d="M0.374353 243.511C0.374353 227.8 0.353598 192.58 0.60265 190.692C1.3083 185.441 6.01953 181.477 11.1043 181.684C16.2307 181.892 20.3608 185.794 20.6098 191.21C20.8589 196.357 20.6721 213.646 21.0249 217.091C21.5438 222.031 24.0343 225.704 28.9115 227.406C30.6757 228.029 32.419 228.029 34.1831 227.427C35.9888 226.825 37.7321 226.015 39.3717 225.04C64.4845 210.263 89.5972 195.465 114.731 180.688C116.848 179.443 118.985 178.218 121.621 178.301C125.461 178.447 128.304 180.418 129.529 183.967C130.815 187.703 130.089 190.961 127.1 193.39C123.178 196.586 69.7768 227.697 68.3863 228.817C66.4769 230.374 66.041 232.636 67.0995 234.525C68.2202 236.496 70.6277 237.347 72.9107 236.31C75.1522 235.293 119.442 209.308 139.428 197.54C142.313 195.839 145.157 194.552 148.602 196.108C155.119 199.056 156.136 207.129 150.387 211.384C148.872 212.525 82.603 251.585 81.4615 252.643C79.7596 254.2 79.5729 256.275 80.6936 258.122C81.8558 260.053 84.0765 260.841 86.2142 259.97C87.3557 259.513 124.651 237.555 142.251 227.219C144.658 225.808 147.107 224.397 150.158 225.206C153.749 226.161 156.073 228.444 156.924 231.972C157.754 235.438 156.551 238.406 153.728 240.606C150.802 242.889 96.3216 274.788 95.2216 275.722C93.5198 277.196 93.1047 279.084 93.8726 280.848C94.6405 282.612 96.7367 283.671 98.9159 283.36C100.286 283.173 138.992 261.09 140.404 260.426C144.326 258.579 148.913 259.928 151.321 263.56C153.687 267.151 153.105 272.007 149.805 274.83C147.564 276.739 83.9105 314.74 62.4505 326.529C59.3581 328.23 52.9243 330.202 52.2809 330.389C23.889 338.317 0.872457 317.127 0.395107 292.948C0.0837923 276.469 0.353599 243.491 0.374353 243.491V243.511Z" fill="white"/>
<path d="M0.062263 43.0662C-0.062263 29.0571 4.85651 17.2686 15.9808 8.69708C27.9768 -0.538591 41.4256 -2.42724 55.6631 3.07266C61.9724 5.50092 67.6176 9.2367 73.408 12.6197C96.8189 26.3383 146.65 55 147.999 56.1415C151.693 59.2754 152.544 64.0904 150.303 68.345C147.895 72.911 143.599 75.0071 138.846 73.8864C135.194 73.0355 120.064 64.1734 115.394 61.7451C106.656 57.1792 98.7906 61.8282 98.666 71.7072C98.5 85.8409 98.8113 162.072 98.7698 164.541C98.6868 169.502 94.0171 172.885 90.2398 172.843C85.5701 172.802 81.3985 169.066 80.9834 164.313C80.8381 162.632 80.9834 97.2558 80.2777 95.7615C79.3853 93.8313 77.8287 92.6276 76.1891 92.7936C74.1967 93.0012 72.993 94.2464 72.2873 96.052C71.6854 97.5463 72.2043 158.668 72.1835 174.358C72.1835 178.094 71.5817 181.415 68.0534 183.677C62.3667 187.33 55.0405 184.03 54.4801 177.264C54.1065 172.802 54.0443 99.2274 53.8782 97.5463C53.6084 94.9313 51.5122 92.8144 49.3953 92.8351C47.2991 92.8559 45.3897 95.0558 45.3689 97.7747C45.2859 108.546 45.2029 152.047 45.2029 163.047C45.2029 166.243 44.3105 168.983 41.7369 171.058C36.7352 175.126 28.5787 172.054 27.5825 165.662C27.3542 164.126 27.0429 96.9445 26.6901 96.0935C25.9429 94.2049 24.0128 92.7106 22.4147 92.8351C20.8166 92.9596 18.9072 94.703 18.5959 96.6124C18.3468 98.0445 18.1808 142.002 18.1185 143.683C17.9732 148.208 13.179 152.172 9.09039 151.902C4.50369 151.591 0.705647 148 0.332069 143.268C0.290561 142.812 0.124526 58.6112 0 43.0247L0.062263 43.0662Z" fill="white"/>
<path d="M297.991 166.679C297.639 181.144 291.371 192.476 279.541 200.695C272.63 205.51 192.912 251.045 191.688 251.605C186.665 253.909 180.729 252.207 178.114 247.766C175.146 242.702 176.246 237.368 181.061 233.819C185.129 230.809 199.471 222.923 202.148 221.262C203.787 220.245 205.178 218.959 206.257 217.34C209.391 212.67 208.602 207.067 204.223 203.518C201.857 201.608 199.18 200.155 196.565 198.64C172.78 184.901 122.68 155.949 121.559 155.056C117.906 152.13 117.097 147.232 119.525 143.268C121.891 139.387 126.332 137.955 130.628 139.739C131.874 140.258 187.309 172.241 189.052 173.009C191.688 174.171 193.763 173.59 194.946 171.577C196.067 169.688 195.548 167.322 193.182 165.765C189.342 163.254 125.668 126.623 124.361 125.606C120.625 122.659 119.774 117.927 122.119 113.838C124.298 110.019 128.823 108.442 133.16 110.102C134.717 110.704 200.965 148.871 202.708 149.619C203.953 150.158 205.344 150.283 206.631 149.639C208.872 148.539 209.453 145.675 207.876 143.621C206.755 142.168 148.809 108.629 147.668 107.529C144.555 104.478 144.015 99.7044 146.402 96.1346C148.83 92.5234 153.354 91.0498 157.319 92.7932C161.739 94.7441 215.638 126.062 216.676 126.457C218.419 127.1 220.349 126.457 221.387 124.983C222.529 123.385 222.446 121.704 221.097 120.044C220.08 118.798 182.037 96.7573 180.273 95.4082C176.288 92.3989 175.437 87.6461 177.907 83.4537C180.314 79.3859 185.15 77.8708 189.612 80.2161C195.465 83.2877 278.254 131.334 280.931 133.181C291.059 140.134 298.531 154.309 297.971 166.699L297.991 166.679Z" fill="white"/>
</svg>
